HIERARCHY
ROOT pelvis
{
	OFFSET 0.000000 0.000000 0.000000
	CHANNELS 6 Xposition Yposition Zposition Zrotation Xrotation Yrotation
	JOINT lfemur
	{
		OFFSET 11.446000 0.000000 0.000000
		CHANNELS 3 Zrotation Xrotation Yrotation
		JOINT ltibia
		{
			OFFSET 0.000000 -42.030400 0.000000
			CHANNELS 3 Zrotation Xrotation Yrotation
			JOINT lfoot
			{
				OFFSET 0.000000 -39.930200 0.000000
				CHANNELS 3 Zrotation Xrotation Yrotation
				JOINT ltoes
				{
					OFFSET 0.000000 0.000000 11.775800
					CHANNELS 3 Zrotation Xrotation Yrotation
					End Site
					{
					    OFFSET 0.000000 0.000000 5.000000
					}
				}
			}
		}
	}
	JOINT rfemur
	{
		OFFSET -11.446000 0.000000 0.000000
		CHANNELS 3 Zrotation Xrotation Yrotation
		JOINT rtibia
		{
			OFFSET 0.000000 -42.030400 0.000000
			CHANNELS 3 Zrotation Xrotation Yrotation
			JOINT rfoot
			{
				OFFSET 0.000000 -39.930200 0.000000
				CHANNELS 3 Zrotation Xrotation Yrotation
				JOINT rtoes
				{
					OFFSET 0.000000 0.000000 11.775800
					CHANNELS 3 Zrotation Xrotation Yrotation
					End Site
					{
					    OFFSET 0.000000 0.000000 5.000000
					}
				}
			}
		}
	}
	JOINT thorax
	{
		OFFSET 0.000000 11.255600 -5.000000
		CHANNELS 3 Zrotation Xrotation Yrotation
		JOINT head
		{
			OFFSET 0.000000 43.799300 0.000000
			CHANNELS 3 Zrotation Xrotation Yrotation
			End Site
			{
			    OFFSET 0.000000 5.000000 0.000000
			}
		}
		JOINT lclavicle
		{
			OFFSET 0.000000 39.863000 0.000000
			CHANNELS 3 Zrotation Xrotation Yrotation
			JOINT lhumerus
			{
				OFFSET 17.380600 4.958300 0.000000
				CHANNELS 3 Zrotation Xrotation Yrotation
				JOINT lradius
				{
					OFFSET 0.000000 -27.561300 0.000000
					CHANNELS 3 Zrotation Xrotation Yrotation
					JOINT lhand
					{
						OFFSET 0.000000 -26.933000 0.000000
						CHANNELS 3 Zrotation Xrotation Yrotation
						End Site
						{
						    OFFSET 0.000000 -5.000000 0.000000
						}
					}
				}
			}
		}
		JOINT rclavicle
		{
			OFFSET 0.000000 39.863000 0.000000
			CHANNELS 3 Zrotation Xrotation Yrotation
			JOINT rhumerus
			{
				OFFSET -17.380600 4.958300 0.000000
				CHANNELS 3 Zrotation Xrotation Yrotation
				JOINT rradius
				{
					OFFSET 0.000000 -27.561300 0.000000
					CHANNELS 3 Zrotation Xrotation Yrotation
					JOINT rhand
					{
						OFFSET 0.000000 -26.933000 0.000000
						CHANNELS 3 Zrotation Xrotation Yrotation
						End Site
						{
						    OFFSET 0.000000 -5.000000 0.000000
						}
					}
				}
			}
		}
	}
}
MOTION
Frames: 19
Frame Time:	0.0333333
30.428000 38.993200 7.892600 19.982831 -10.344720 -104.811025 -8.075637 -53.846211 16.417853 -180.000037 41.322061 180.000037 0.000000 15.074444 23.320546 -0.000000 -0.958266 -0.000000 -1.437775 -56.159989 11.189408 -180.000037 35.904244 -180.000037 -0.000000 10.361620 -4.833643 -0.000000 -29.556277 -0.000000 -15.365191 19.361394 1.463615 -4.659274 7.108477 21.843053 -15.166349 -0.000000 -0.625708 45.917842 -1.963148 7.896833 180.000033 -68.306591 163.455849 19.916128 -6.087518 -0.000000 14.006529 0.000000 -3.094445 -44.151009 -11.644316 10.180980 -180.000029 -52.771271 -160.942881 -1.852062 -2.869847 -0.000000 
30.841400 39.385200 8.921300 25.816674 -11.673013 -103.546084 -11.839494 -59.388955 12.488941 -180.000037 41.514467 -180.000037 0.000000 13.603117 23.145893 0.000000 -0.967595 0.000000 -3.484422 -61.175032 7.810153 180.000037 37.805455 -180.000037 0.000000 15.367063 -6.038960 -0.000000 -29.517533 -0.000000 -16.447121 22.355042 1.402173 -0.002703 7.676572 17.983587 -14.944399 0.000000 -5.160173 54.995724 -18.171144 15.465904 -180.000031 -80.884914 165.448376 19.071386 -7.302879 0.000000 13.457859 -0.000000 2.113622 -44.687645 -29.686431 4.486571 -180.000035 -56.091154 -159.095514 -2.489323 -2.652641 0.000000 
30.558800 39.978700 9.691600 31.241119 -12.542683 -102.452621 -16.227492 -63.707130 6.745690 180.000037 42.384907 -180.000037 0.000000 15.532509 22.777790 -0.000000 -0.979993 0.000000 -8.414788 -65.321278 2.621769 -180.000037 39.206218 -180.000037 -0.000000 16.058379 -4.446439 0.000000 -29.517533 -0.000000 -17.248310 25.660772 2.283467 4.556610 8.763203 15.175703 -13.382510 0.000000 -8.075192 65.357195 -34.766949 24.355124 -0.000015 -85.804982 -17.923649 22.518936 -7.772937 -0.000000 11.349644 -0.000000 3.066972 -46.959184 -49.256401 -1.284950 180.000036 -65.973936 -161.055964 -4.507528 -1.965514 -0.000000 
29.885700 40.266600 10.233600 37.387681 -12.951404 -101.358523 -18.874824 -68.510110 5.402601 -180.000037 42.733765 -180.000037 -0.000000 13.979659 -1.679299 -0.000000 -0.710365 -0.000000 -13.746697 -69.350985 -2.701169 180.000037 40.322981 -180.000037 -0.000000 14.400365 -3.480917 0.000000 -29.517533 -0.000000 -17.276777 28.289826 2.774929 8.107028 10.579801 13.414596 -9.937659 0.000000 -8.318345 78.283305 -50.997926 39.100005 -0.000012 -71.099915 -23.197123 21.746971 -10.019442 0.000000 6.351288 -0.000000 2.050145 -44.590895 -66.945265 -6.438259 180.000035 -80.859050 -160.527958 -3.406120 -2.335631 -0.000000 
28.596600 40.621200 10.541900 42.840366 -13.162273 -100.527238 -22.034662 -72.004150 2.266649 -180.000037 42.928098 -180.000037 0.000000 13.917021 -1.342287 0.000000 -0.705859 0.000000 -16.591406 -71.849978 -4.406344 180.000037 41.581021 -180.000037 0.000000 13.394778 -2.614372 -0.000000 -29.517533 0.000000 -17.952227 31.629802 1.752363 11.032218 12.380625 13.273617 -4.972137 0.000000 -5.568440 99.264157 -62.163404 64.360802 -0.000001 -57.428316 -29.994977 24.771049 -11.073406 -0.000000 4.345681 -0.000000 0.884151 -42.590312 -86.017924 -10.530150 -0.000004 -77.493293 24.176614 -6.331718 -1.354613 -0.000000 
26.771900 41.197400 10.727300 49.825876 -13.161965 -99.055113 -31.544629 -75.862949 -7.203838 -180.000037 43.266520 -180.000037 0.000000 15.191263 -0.023750 0.000000 -0.724805 0.000000 -21.946950 -75.645281 -9.669291 -180.000037 42.570565 -180.000037 0.000000 12.802775 -4.100667 0.000000 -29.517533 -0.000000 -16.218882 35.895950 -1.643076 10.644977 13.335907 14.697830 -0.898679 0.000000 -2.786398 126.676412 -62.775755 97.091626 0.000001 -46.169223 -32.623694 25.831385 -10.035679 0.000000 -2.532701 0.000000 0.529919 145.731364 -75.856385 165.602471 0.000000 -55.073976 27.169447 -11.055371 0.237422 0.000000 
23.362600 42.030100 11.360100 55.114359 -15.805798 -97.830152 -40.215965 -74.736843 -12.628104 -180.000037 46.613177 -180.000037 -0.000000 14.831002 2.210444 -0.000000 -0.708914 -0.000000 -35.031090 -76.396036 -18.520751 180.000037 44.065325 180.000037 0.000000 10.323954 -2.913953 0.000000 -29.517533 -0.000000 -17.324630 38.576632 -1.263112 9.996004 16.892858 11.251914 -0.563777 -0.000000 -1.874743 131.755627 -67.806867 109.019236 -0.000013 -63.810132 -55.541030 32.760182 -10.696238 -0.000000 -5.640510 0.000000 1.156960 156.231376 -72.800168 175.664580 0.000001 -52.752578 41.522490 -28.964764 6.285474 0.000000 
20.131600 42.854600 11.249300 63.104728 -15.758654 -95.281781 -51.954471 -76.143504 -25.630895 180.000037 49.063945 180.000037 -0.000000 14.471754 2.528755 -0.000000 -0.753628 -0.000000 -48.039340 -78.229187 -31.710660 -180.000037 45.592009 180.000037 -0.000000 9.048046 -1.183891 -0.000000 -29.517533 -0.000000 -15.801182 37.668784 -1.157227 10.731514 21.792834 4.905387 -4.631224 -0.000000 -0.725599 145.889686 -71.379817 122.309883 -0.000001 -78.156828 -53.106617 27.176750 -11.761240 -0.000000 -0.613368 0.000000 4.663221 172.537149 -76.200334 -161.813493 0.000006 -74.657172 48.288557 -20.420161 3.400305 -0.000000 
16.855500 43.487500 10.878500 69.491666 -15.914204 -93.679514 -59.690088 -76.781378 -34.637070 -180.000037 50.761493 180.000037 0.000000 13.347260 3.560345 0.000000 -0.784062 -0.000000 -57.512214 -79.335895 -41.275123 -180.000037 46.205633 -180.000037 -0.000000 8.638506 -1.701250 -0.000000 -29.517533 -0.000000 -14.562207 36.491987 -0.925790 8.496884 26.828840 -0.508098 -6.166359 -0.000000 -1.492887 141.715396 -69.165465 117.079553 -179.999872 -88.968902 137.637808 20.391896 -12.704400 0.000001 2.457348 -0.000000 6.079097 165.671946 -76.261260 -167.984300 -0.000002 -87.208874 49.004707 -12.733524 0.820546 0.000000 
14.173200 43.859000 10.426200 74.716266 -15.861317 -92.294996 -67.296298 -77.423046 -43.737176 -180.000037 51.368151 -180.000037 -0.000000 12.622362 4.013110 -0.000000 -0.809844 0.000000 -68.458140 -80.059630 -52.645298 180.000037 45.686662 180.000037 -0.000000 7.347828 -1.711893 -0.000000 -29.517533 0.000000 -13.991968 34.812141 1.747214 14.297676 32.197037 -6.502208 -3.692983 -0.000000 -0.309996 140.979353 -70.894740 116.164031 -180.000010 -82.241143 142.096936 16.689100 -14.433079 -0.000000 2.191382 0.000000 -3.251976 144.097498 -73.525728 167.483441 -179.999936 -87.790267 -132.899388 -11.044615 0.259797 0.000000 
12.235800 43.847900 9.948100 76.483570 -15.393468 -91.750442 -64.905516 -77.210922 -42.896282 -180.000037 50.876883 -180.000037 -0.000000 11.580281 3.662740 0.000000 -0.829548 -0.000000 -66.873651 -79.388303 -51.438810 -180.000037 44.269288 -180.000037 -0.000000 7.054700 -0.840364 -0.000000 -29.517533 0.000000 -13.361712 32.019922 1.698808 14.643339 42.248812 -7.838504 -3.752414 0.000000 -3.710029 120.759932 -71.436183 95.197452 180.000037 -78.142415 139.206811 18.253859 -13.939076 -0.000000 2.506178 0.000000 -2.353309 143.713118 -78.760152 170.070840 180.000001 -85.367950 -137.815816 -8.884275 -0.480286 0.000000 
10.633100 43.835600 9.603700 75.642485 -15.906201 -91.974874 -55.431096 -75.828784 -33.922093 180.000037 50.725703 -180.000037 0.000000 10.414432 3.381827 -0.000000 -0.870587 -0.000000 -58.517696 -77.605611 -42.226068 -180.000037 43.221960 -180.000037 0.000000 7.321523 0.621996 -0.000000 -29.517533 -0.000000 -14.094045 32.769762 0.652107 13.358503 47.347767 -6.865453 -4.958925 0.000000 -3.471128 113.322571 -73.962949 88.372507 180.000027 -77.198285 130.013069 20.284372 -11.613576 0.000000 1.626177 0.000000 2.168779 173.788245 -83.075520 -157.478739 -180.000034 -81.977320 -139.750732 -7.700589 -0.880684 0.000000 
9.217900 43.969400 9.021500 75.095949 -16.276097 -92.666998 -46.591785 -75.197535 -26.151425 -180.000037 50.893234 -180.000037 -0.000000 9.320950 3.364598 -0.000000 -0.885806 0.000000 -48.344330 -76.862571 -31.830563 -180.000037 43.330574 -180.000037 0.000000 7.594692 0.958792 -0.000000 -29.517533 -0.000000 -15.024436 33.899732 0.242731 10.216438 48.555184 -4.044453 -6.214084 -0.000000 -1.779645 113.578486 -76.343525 88.405836 180.000027 -77.186173 121.484584 22.778998 -8.181984 -0.000000 0.294026 -0.000000 3.182913 -178.433944 -84.577599 -149.070736 -180.000025 -80.128905 -140.339483 -8.695390 -0.545154 -0.000000 
7.876800 44.117300 8.414600 75.351392 -17.097026 -93.307343 -40.199060 -74.674978 -20.717516 -180.000037 51.664772 -180.000037 -0.000000 7.939018 2.439199 -0.000000 -0.891339 -0.000000 -41.377503 -76.752144 -24.673396 -180.000037 44.304819 -180.000037 -0.000000 7.690809 0.920749 -0.000000 -29.517533 0.000000 -16.494388 34.785853 0.157848 7.557919 46.913828 -2.437733 -6.758672 -0.000000 -0.615602 112.829409 -76.613521 87.178088 -180.000028 -75.531790 116.441365 22.758995 -6.588734 0.000000 -1.826581 0.000000 3.394954 176.191585 -85.983687 -155.184595 -180.000034 -77.504661 -140.029338 -8.175015 -0.723145 0.000000 
6.677200 44.253600 7.791800 76.092379 -17.926916 -93.529612 -35.955468 -74.062734 -17.339360 -180.000037 52.822257 -180.000037 0.000000 6.964242 1.366698 -0.000000 -0.909718 -0.000000 -36.659053 -76.662319 -20.266431 180.000037 45.815561 -180.000037 0.000000 7.416958 0.931837 -0.000000 -29.517533 0.000000 -17.954664 35.618651 -0.037987 4.951359 44.803510 -0.888674 -7.812774 -0.000000 0.866929 115.937703 -75.991181 89.101535 180.000031 -73.743766 117.173806 22.691066 -6.692299 0.000000 -2.824019 -0.000000 3.184788 155.657663 -86.612495 -176.038496 -180.000035 -74.697306 -137.758762 -8.206164 -0.708170 0.000000 
5.642800 44.340500 7.186700 77.509730 -18.304637 -93.165970 -34.693199 -73.856866 -17.003499 180.000037 53.961205 -180.000037 0.000000 6.437243 1.794225 -0.000000 -0.910872 -0.000000 -35.215228 -76.804831 -20.016922 -180.000037 47.414591 180.000037 0.000000 6.240797 1.798990 -0.000000 -29.538358 -0.000000 -18.685562 35.651486 -0.547969 3.632879 42.962931 -0.960716 -8.464262 0.000000 2.031692 118.125260 -75.273881 90.750171 180.000025 -71.687925 121.931158 20.523588 -9.505777 0.000000 -2.443589 -0.000000 1.894197 121.732018 -85.653792 150.468288 180.000027 -72.738636 -138.725197 -6.425225 -1.310807 -0.000000 
4.764300 44.376200 6.593700 78.157032 -18.405206 -93.321124 -31.251642 -73.395546 -14.350584 180.000037 54.818640 -180.000037 -0.000000 5.930400 1.333403 -0.000000 -0.896753 -0.000000 -30.913226 -76.694705 -16.961358 -180.000037 48.999769 180.000037 0.000000 6.305405 2.048776 -0.000000 -29.542961 -0.000000 -19.300059 35.785621 -0.681460 2.470180 42.218717 -1.243691 -8.333309 -0.000000 2.855574 115.187145 -74.924988 90.046383 -180.000037 -64.087878 158.837331 -2.243929 -11.850883 -0.000000 -1.937416 -0.000000 2.100693 115.568438 -85.349423 145.387401 -180.000034 -71.432440 -139.225679 -5.425767 -1.646410 -0.000000 
4.176200 44.388500 6.082200 78.518620 -17.772505 -93.236827 -28.612162 -73.165252 -12.611781 180.000037 55.134468 180.000037 0.000000 5.655570 0.843907 0.000000 -0.900662 -0.000000 -26.846540 -76.269436 -14.609030 180.000037 50.386680 180.000037 0.000000 6.263401 1.900202 -0.000000 -29.544621 -0.000000 -18.916752 35.811857 -1.099968 1.543518 42.036188 -1.230932 -8.640324 -0.000000 3.132038 112.625733 -74.591920 87.783220 -180.000037 -62.965318 160.349138 -3.601998 -12.574255 -0.000000 -1.017985 -0.000000 2.798874 109.416460 -85.582366 140.747914 180.000037 -70.748261 -141.183015 -4.702950 -1.891902 -0.000000 
3.760300 44.388500 5.714000 78.681248 -17.243229 -92.989501 -27.563416 -72.879834 -11.683450 -180.000037 55.522915 -180.000037 0.000000 5.388326 1.487916 -0.000000 -0.901341 -0.000000 -24.924689 -75.682827 -13.924000 -180.000037 51.714687 -180.000037 -0.000000 7.170885 2.090070 -0.000000 -29.517533 -0.000000 -18.487182 35.891952 -1.346503 1.975419 41.965956 -1.609919 -8.473022 0.000000 2.985607 109.415904 -74.443866 84.742885 -180.000037 -62.200703 159.530595 -3.353874 -12.674440 -0.000000 -0.587469 -0.000000 3.410832 102.562801 -86.022457 134.458428 180.000026 -70.161462 -140.401526 -4.815688 -1.852889 -0.000000 
